<?xml version="1.0" encoding="UTF-8" standalone="no"?>
<!-- Created with Inkscape (http://www.inkscape.org/) -->

<svg
   width="150mm"
   height="40mm"
   viewBox="0 0 150 40"
   version="1.1"
   id="svg5"
   inkscape:export-filename="C:\Users\steve\OneDrive - Swansea University\Desktop\NEURONE\PM\logo\logo1.png"
   inkscape:export-xdpi="96"
   inkscape:export-ydpi="96"
   inkscape:version="1.1.2 (b8e25be833, 2022-02-05)"
   sodipodi:docname="NEURONE-logo-svg.svg"
   xmlns:inkscape="http://www.inkscape.org/namespaces/inkscape"
   xmlns:sodipodi="http://sodipodi.sourceforge.net/DTD/sodipodi-0.dtd"
   xmlns="http://www.w3.org/2000/svg"
   xmlns:svg="http://www.w3.org/2000/svg">
  <sodipodi:namedview
     id="namedview7"
     pagecolor="#ffffff"
     bordercolor="#666666"
     borderopacity="1.0"
     inkscape:pageshadow="2"
     inkscape:pageopacity="0.0"
     inkscape:pagecheckerboard="0"
     inkscape:document-units="mm"
     showgrid="false"
     inkscape:zoom="0.90583672"
     inkscape:cx="296.96301"
     inkscape:cy="208.64687"
     inkscape:window-width="1920"
     inkscape:window-height="1009"
     inkscape:window-x="-8"
     inkscape:window-y="-8"
     inkscape:window-maximized="1"
     inkscape:current-layer="layer1" />
  <defs
     id="defs2" />
  <g
     inkscape:label="Layer 1"
     inkscape:groupmode="layer"
     id="layer1">
    <path
       id="path10442"
       style="fill:#002255;stroke-width:1.05814;stroke-linecap:round"
       d="M 41.894262,20.406151 A 18.403744,18.403744 0 0 1 23.490519,38.809895 18.403744,18.403744 0 0 1 5.0867748,20.406151 18.403744,18.403744 0 0 1 23.490519,2.0024071 18.403744,18.403744 0 0 1 41.894262,20.406151 Z" />
    <g
       aria-label="eurone"
       id="text3422"
       style="font-size:36.6359px;line-height:1.25;font-family:Coolvetica;-inkscape-font-specification:Coolvetica;fill:#002255;stroke-width:0.381624">
      <path
         d="m 59.175556,21.643233 c 0.219816,-1.282256 0.329723,-2.454605 0.329723,-3.517046 0,-4.799303 -2.344697,-7.217272 -6.887549,-7.217272 -6.447918,0 -10.62441,4.579487 -10.62441,11.540308 0,4.872574 2.527877,7.437087 7.583631,7.437087 3.846769,0 7.180636,-2.088246 8.939159,-5.788472 H 53.6069 c -0.549539,1.245621 -2.051611,2.014975 -3.590318,2.014975 -2.088247,0 -3.297231,-1.062441 -3.297231,-3.626954 V 21.643233 Z M 47.268889,18.63909 c 0.696082,-2.23479 2.124882,-3.956678 4.542852,-3.956678 1.611979,0 3.077415,0.549539 3.077415,2.857601 0,0.329723 0,0.696082 -0.07327,1.099077 z"
         id="path2705" />
      <path
         d="m 75.698355,29.410044 3.187324,-18.024862 h -4.726031 l -1.831795,10.404595 c -0.439631,2.381333 -2.088246,4.10322 -4.432944,4.10322 -1.685251,0 -2.601149,-0.43963 -2.601149,-2.124882 0,-0.366359 0.07327,-0.769354 0.146544,-1.24562 l 1.978338,-11.137313 h -4.762666 l -2.088247,11.870031 c -0.109907,0.512902 -0.146543,1.025805 -0.146543,1.502072 0,3.114051 1.978338,5.129025 5.09239,5.129025 2.491241,0 4.506215,-0.952533 6.118195,-3.004143 l -0.439631,2.527877 z"
         style="font-style:italic;-inkscape-font-specification:'Coolvetica Italic'"
         id="path2707" />
      <path
         d="m 82.549268,29.410044 1.648616,-9.37879 c 0.512902,-2.894236 2.198154,-4.359672 5.129026,-4.359672 0.439631,0 0.879261,0.03664 1.318892,0.109907 l 0.842626,-4.872574 h -0.622811 c -1.941702,0 -3.810133,0.219815 -5.825107,2.637785 l 0.402994,-2.161518 h -4.469579 l -3.187323,18.024862 z"
         style="font-style:italic;-inkscape-font-specification:'Coolvetica Italic'"
         id="path2709" />
      <path
         d="m 97.936291,25.892997 c -2.381333,0 -3.553682,-0.915897 -3.553682,-4.029948 0,-4.249765 1.758523,-6.924185 5.495385,-6.924185 2.344696,0 3.553686,0.732718 3.553686,3.993313 0,4.249764 -1.79516,6.96082 -5.495389,6.96082 z m -0.696082,3.993313 c 6.447921,0 11.027401,-4.689395 11.027401,-11.283856 0,-4.652759 -2.82096,-7.693539 -7.69353,-7.693539 -6.55783,0 -11.137317,4.689395 -11.137317,11.247221 0,4.579487 2.747692,7.730174 7.803446,7.730174 z"
         style="font-style:italic;-inkscape-font-specification:'Coolvetica Italic'"
         id="path2711" />
      <path
         d="m 124.53393,29.410044 2.19816,-12.492842 c 0.0733,-0.476266 0.1099,-0.952533 0.1099,-1.392164 0,-3.004144 -2.01497,-4.616123 -5.01912,-4.616123 -2.89423,0 -4.90921,1.099077 -6.37464,3.114051 l 0.47626,-2.637784 h -4.54285 l -3.18732,18.024862 h 4.76267 l 1.83179,-10.331324 c 0.47627,-2.747692 1.9417,-4.139856 4.43295,-4.139856 1.79515,0 2.60114,0.402995 2.60114,2.014974 0,0.439631 -0.0366,0.952534 -0.14654,1.538708 l -1.9417,10.917498 z"
         style="font-style:italic;-inkscape-font-specification:'Coolvetica Italic'"
         id="path2713" />
      <path
         d="m 144.75696,21.643233 c 0.21982,-1.282256 0.32972,-2.454605 0.32972,-3.517046 0,-4.799303 -2.34469,-7.217272 -6.88754,-7.217272 -6.44792,0 -10.62441,4.579487 -10.62441,11.540308 0,4.872574 2.52787,7.437087 7.58363,7.437087 3.84677,0 7.18063,-2.088246 8.93916,-5.788472 h -4.90921 c -0.54954,1.245621 -2.05162,2.014975 -3.59032,2.014975 -2.08825,0 -3.29723,-1.062441 -3.29723,-3.626954 V 21.643233 Z M 132.85029,18.63909 c 0.69609,-2.23479 2.12489,-3.956678 4.54286,-3.956678 1.61198,0 3.07741,0.549539 3.07741,2.857601 0,0.329723 0,0.696082 -0.0733,1.099077 z"
         style="font-style:italic;-inkscape-font-specification:'Coolvetica Italic'"
         id="path2715" />
    </g>
    <g
       aria-label="n"
       id="text24722"
       style="font-size:36.6359px;line-height:1.25;font-family:Coolvetica;-inkscape-font-specification:Coolvetica;fill:#f2f2f2;stroke-width:0.381624">
      <path
         d="m 29.689547,29.123064 2.198154,-12.492841 c 0.07327,-0.476267 0.109908,-0.952534 0.109908,-1.392165 0,-3.004143 -2.014975,-4.616123 -5.019119,-4.616123 -2.894236,0 -4.90921,1.099077 -6.374646,3.114052 l 0.476267,-2.637785 h -4.542852 l -3.187323,18.024862 h 4.762667 l 1.831795,-10.331323 c 0.476267,-2.747693 1.941702,-4.139857 4.432944,-4.139857 1.795159,0 2.601148,0.402995 2.601148,2.014975 0,0.43963 -0.03664,0.952533 -0.146543,1.538707 l -1.941703,10.917498 z"
         style="font-style:italic;-inkscape-font-specification:'Coolvetica Italic'"
         id="path2718" />
    </g>
    <g
       aria-label="0"
       id="text27354"
       style="font-size:9.15898px;line-height:1.25;font-family:Coolvetica;-inkscape-font-specification:Coolvetica;fill:#f2f2f2;stroke-width:0.381624">
      <path
         d="m 34.082947,14.168267 c -0.393836,0 -0.604492,-0.357201 -0.604492,-1.236463 0,-2.179837 0.842626,-3.3430276 1.419642,-3.3430276 0.384677,0 0.595333,0.3114053 0.595333,1.2273036 0,1.987498 -0.833467,3.352187 -1.410483,3.352187 z m -0.201497,0.961692 c 1.731047,0 2.802648,-1.950862 2.802648,-4.286402 0,-1.52955 -0.613652,-2.2073146 -1.657776,-2.2073146 -1.786001,0 -2.766012,1.7768426 -2.766012,4.2589256 0,1.52955 0.586175,2.234791 1.62114,2.234791 z"
         style="font-style:italic;-inkscape-font-specification:'Coolvetica Italic'"
         id="path2721" />
    </g>
  </g>
</svg>
